<svg width="40" height="40" viewBox="0 0 40 40" fill="none" xmlns="http://www.w3.org/2000/svg">
<g clip-path="url(#clip0_74_936)">
<mask id="mask0_74_936" style="mask-type:luminance" maskUnits="userSpaceOnUse" x="0" y="0" width="40" height="40">
<path d="M40 0H0V40H40V0Z" fill="white"/>
</mask>
<g mask="url(#mask0_74_936)">
<path d="M20 40C31.0457 40 40 31.0457 40 20C40 8.9543 31.0457 0 20 0C8.9543 0 0 8.9543 0 20C0 31.0457 8.9543 40 20 40Z" fill="#E62323"/>
<path d="M11.0663 20.7454C10.7512 20.9295 10.5056 21.1865 10.3466 21.4894C10.212 21.7458 10.1396 22.0351 10.1396 22.3416C10.1396 22.6731 10.2242 22.9846 10.3731 23.2567C10.6968 23.8475 11.3241 24.2478 12.0451 24.2478H17.0906C17.1171 24.8342 17.057 25.599 16.6581 26.1024C16.2113 26.6666 15.821 27.4887 15.8246 28.7447C15.8274 29.7952 16.0322 30.3308 16.4046 30.9918C17.0527 32.1425 18.9782 31.9763 19.0584 31.1199C19.3133 28.3938 20.623 26.7719 21.6363 25.6054C21.8375 25.3742 22.4132 24.5141 22.6266 24.247C22.9402 23.8532 23.6606 22.8034 23.985 22.3272C24.0373 22.2506 24.0774 22.1668 24.1053 22.0795C24.1332 21.9921 24.149 21.8926 24.149 21.7952V21.0154V20.4354V17.7837V17.2037V15.0361V14.2606V12.8643C24.149 12.7554 24.1139 12.653 24.0523 12.5693C23.9879 12.4819 23.8955 12.4153 23.7859 12.3838L22.1855 11.9291C22.0502 11.8904 21.912 11.8611 21.773 11.841C21.6184 11.8181 21.4623 11.8066 21.3062 11.8066H13.6885C13.1894 11.8066 12.7426 12.0329 12.4468 12.3895C12.2141 12.6695 12.0738 13.029 12.0738 13.4214C12.0738 13.5732 12.0953 13.7193 12.1346 13.8589C12.1762 14.0043 12.237 14.1418 12.3151 14.2678C11.8833 14.3043 11.4952 14.4969 11.2088 14.7884C10.8966 15.1063 10.7039 15.5417 10.7039 16.0222C10.7039 16.3072 10.7712 16.5757 10.8915 16.8135C10.9954 17.019 11.1379 17.2016 11.3097 17.3512C11.0441 17.4622 10.8099 17.6319 10.6216 17.8439C10.3223 18.1804 10.1404 18.6237 10.1404 19.1099C10.1404 19.3849 10.1991 19.647 10.3036 19.8833C10.4633 20.2434 10.7319 20.5442 11.067 20.7454H11.0663Z" fill="white"/>
<path d="M26.2541 23.3997H28.6894C28.9601 23.3997 29.2086 23.3081 29.4069 23.1541C29.6826 22.94 29.8595 22.6056 29.8595 22.2297V12.4875C29.8595 12.234 29.7786 11.9991 29.6418 11.8072C29.4299 11.5107 29.0826 11.3174 28.6894 11.3174H26.2541C25.8617 11.3174 25.5143 11.5107 25.3017 11.8072C25.1642 11.9991 25.084 12.234 25.084 12.4875V22.2297C25.084 22.64 25.2953 23.0009 25.6146 23.21C25.7986 23.3303 26.0178 23.3997 26.2541 23.3997Z" fill="white"/>
</g>
</g>
<defs>
<clipPath id="clip0_74_936">
<rect width="40" height="40" fill="white"/>
</clipPath>
</defs>
</svg>
