<svg width="14" height="12" viewBox="0 0 14 12" fill="none" xmlns="http://www.w3.org/2000/svg">
<path fill-rule="evenodd" clip-rule="evenodd" d="M0 0.661994C0.00266667 0.297702 0.311893 0.00289524 0.6944 0H13.3056C13.6892 0 14 0.296661 14 0.661994V11.338C13.9973 11.7023 13.6881 11.9971 13.3056 12H0.6944C0.3108 11.9996 0 11.7034 0 11.338V0.661994ZM12.6001 1.33336H1.40008V10.6667L7.90448 4.47068C8.17784 4.21044 8.62093 4.21044 8.89429 4.47068L12.6001 8.00668V1.33336ZM2.79992 3.99998C2.79992 4.73636 3.42672 5.33331 4.19992 5.33331C4.97312 5.33331 5.59992 4.73636 5.59992 3.99998C5.59992 3.26359 4.97312 2.66664 4.19992 2.66664C3.42672 2.66664 2.79992 3.26359 2.79992 3.99998Z" fill="#2C3338" stroke="black" stroke-width="0.000533333"/>
</svg>
