<svg width="40" height="40" viewBox="0 0 40 40" fill="none" xmlns="http://www.w3.org/2000/svg">
<g clip-path="url(#clip0_74_932)">
<path d="M20 40C31.0457 40 40 31.0457 40 20C40 8.9543 31.0457 0 20 0C8.9543 0 0 8.9543 0 20C0 31.0457 8.9543 40 20 40Z" fill="#49B329"/>
<path d="M28.9333 19.8991C29.2484 19.7151 29.494 19.458 29.653 19.1551C29.7876 18.8987 29.8599 18.6095 29.8599 18.303C29.8599 17.9714 29.7754 17.6599 29.6264 17.3878C29.3028 16.7971 28.6755 16.3968 27.9544 16.3968H22.909C22.8824 15.8103 22.9426 15.0455 23.3415 14.5422C23.7883 13.9779 24.1786 13.1558 24.175 11.8998C24.1721 10.8493 23.9673 10.3137 23.595 9.65277C22.9469 8.50205 21.0214 8.66817 20.9412 9.52459C20.6862 12.2507 19.3766 13.8726 18.3633 15.0391C18.1621 15.2704 17.5864 16.1304 17.373 16.3975C17.0593 16.7913 16.339 17.8411 16.0146 18.3173C15.9623 18.3939 15.9222 18.4777 15.8943 18.565C15.8663 18.6524 15.8506 18.752 15.8506 18.8493V19.6291V20.2092V27.7802C15.8506 27.8891 15.8857 27.9915 15.9472 28.0753C16.0117 28.1626 16.1041 28.2292 16.2136 28.2607L17.8141 28.7154C17.9494 28.7541 18.0876 28.7834 18.2266 28.8035C18.3812 28.8264 18.5373 28.8379 18.6934 28.8379H26.311C26.8101 28.8379 27.257 28.6116 27.5527 28.255C27.7854 27.975 27.9258 27.6155 27.9258 27.2231C27.9258 27.0713 27.9043 26.9253 27.8649 26.7856C27.8255 26.646 27.7625 26.5027 27.6845 26.3767C28.1163 26.3402 28.5044 26.1476 28.7908 25.8561C29.103 25.5382 29.2956 25.1028 29.2956 24.6223C29.2956 24.3374 29.2283 24.0688 29.108 23.8311C29.0042 23.6256 28.8617 23.443 28.6898 23.2933C28.9555 23.1823 29.1896 23.0126 29.378 22.8007C29.6773 22.4641 29.8592 22.0208 29.8592 21.5346C29.8592 21.2597 29.8005 20.9976 29.6959 20.7613C29.5362 20.4011 29.2677 20.1003 28.9326 19.8991H28.9333Z" fill="white"/>
<path d="M13.7451 17.2446H11.3097C11.039 17.2446 10.7906 17.3363 10.5922 17.4902C10.3165 17.7044 10.1396 18.0388 10.1396 18.4147V28.1569C10.1396 28.4104 10.2206 28.6453 10.3573 28.8372C10.5693 29.1336 10.9166 29.327 11.3097 29.327H13.7451C14.1375 29.327 14.4848 29.1336 14.6975 28.8372C14.835 28.6453 14.9152 28.4104 14.9152 28.1569V18.4147C14.9152 18.0044 14.7039 17.6435 14.3846 17.4344C14.2005 17.3141 13.9814 17.2446 13.7451 17.2446Z" fill="white"/>
</g>
<defs>
<clipPath id="clip0_74_932">
<rect width="40" height="40" fill="white"/>
</clipPath>
</defs>
</svg>
