<svg xmlns="http://www.w3.org/2000/svg" width="50" height="50" viewBox="0 0 50 50"><rect width="100%" height="100%" fill="#DDDDDD"/><path fill="#999999" d="M30.83 29.78q.27 0 .48.21l1.33 1.44q-1.1 1.36-2.71 2.08-1.6.73-3.85.73-2.02 0-3.62-.69-1.61-.69-2.75-1.91-1.13-1.23-1.74-2.93T17.36 25q0-2.04.65-3.73t1.83-2.92q1.19-1.22 2.82-1.9 1.64-.69 3.63-.69 1.97 0 3.51.65 1.53.65 2.6 1.7l-1.12 1.57q-.1.15-.26.26t-.43.11q-.19 0-.39-.1-.2-.11-.44-.27-.23-.15-.55-.34-.31-.19-.72-.34-.41-.16-.96-.27-.54-.1-1.25-.1-1.22 0-2.22.43-1.01.43-1.73 1.25-.73.82-1.13 2T20.8 25q0 1.53.43 2.71.43 1.19 1.17 2 .74.82 1.74 1.25t2.15.43q.69 0 1.24-.08.56-.07 1.03-.23.47-.17.89-.42.41-.26.83-.63.12-.12.26-.18.14-.07.29-.07"/></svg>