<svg width="283" height="48" viewBox="0 0 283 48" fill="none" xmlns="http://www.w3.org/2000/svg">
    <path d="M146.154 31.7416V15.4997L138.938 28.0644H137.797L130.581 15.4997V31.7416H128.63V11.9617H130.637L138.353 25.5011L146.126 11.9617H148.104V31.7416H146.154Z" fill="#3E88C6" />
    <path d="M156.629 30.5721C157.613 30.5721 158.519 30.3869 159.345 30.015C160.171 29.6436 160.799 29.1508 161.226 28.5382C161.393 28.3713 161.518 28.1898 161.602 27.9952C161.686 27.8001 161.727 27.619 161.727 27.4517V25.0835C161.096 24.8423 160.441 24.6565 159.763 24.5263C159.085 24.397 158.393 24.3317 157.688 24.3317C156.35 24.3317 155.264 24.61 154.428 25.1671C153.592 25.7247 153.174 26.4582 153.174 27.3685C153.174 27.8142 153.262 28.2317 153.439 28.6219C153.615 29.0122 153.857 29.3511 154.164 29.6389C154.47 29.9271 154.836 30.1542 155.264 30.3211C155.691 30.4885 156.146 30.5721 156.629 30.5721ZM156.183 32.0208C155.496 32.0208 154.86 31.9046 154.275 31.6724C153.69 31.4406 153.179 31.1199 152.743 30.7118C152.306 30.3032 151.967 29.8246 151.726 29.2764C151.484 28.7291 151.364 28.1391 151.364 27.5076C151.364 26.8762 151.512 26.2913 151.809 25.7525C152.106 25.2141 152.524 24.7492 153.063 24.3594C153.601 23.9696 154.243 23.6678 154.985 23.4539C155.728 23.2404 156.545 23.1337 157.437 23.1337C158.18 23.1337 158.932 23.199 159.693 23.3283C160.455 23.4586 161.133 23.6447 161.727 23.8855V22.5765C161.727 21.2949 161.365 20.2784 160.641 19.5261C159.917 18.7738 158.914 18.3977 157.632 18.3977C156.889 18.3977 156.127 18.5463 155.347 18.8429C154.567 19.1406 153.778 19.5675 152.98 20.1246L152.311 18.8711C154.186 17.6083 156.007 16.9769 157.771 16.9769C159.592 16.9769 161.021 17.4874 162.061 18.5086C163.101 19.5308 163.622 20.9422 163.622 22.7434V29.2905C163.622 29.811 163.854 30.0705 164.318 30.0705V31.7419C164.002 31.7979 163.761 31.8256 163.594 31.8256C163.11 31.8256 162.735 31.7052 162.465 31.4636C162.196 31.2224 162.052 30.8881 162.034 30.4607L161.978 29.3187C161.31 30.1914 160.469 30.8604 159.457 31.3244C158.444 31.7885 157.353 32.0208 156.183 32.0208Z" fill="#3E88C6" />
    <path d="M174.961 18.8986C173.679 18.9362 172.565 19.2888 171.618 19.9574C170.671 20.6259 170.002 21.5451 169.612 22.7154V31.7416H167.718V17.2271H169.5V20.7096C170.039 19.5949 170.763 18.7222 171.674 18.0908C172.583 17.4594 173.558 17.1434 174.598 17.1434C174.747 17.1434 174.868 17.1528 174.961 17.1712V18.8986Z" fill="#3E88C6" />
    <path d="M187.861 31.7416L182.511 24.3036L179.391 27.2008V31.7416H177.497V11.4041H179.391V25.2228L187.554 17.2549H189.699L183.765 23.1888L189.921 31.7416H187.861Z" fill="#3E88C6" />
    <path d="M203.127 23.7186C203.071 22.9386 202.89 22.2281 202.584 21.5873C202.278 20.9465 201.887 20.394 201.414 19.93C200.94 19.4654 200.392 19.1034 199.77 18.8429C199.147 18.5834 198.484 18.4532 197.778 18.4532C197.072 18.4532 196.404 18.5834 195.773 18.8429C195.141 19.1034 194.588 19.4654 194.114 19.93C193.641 20.394 193.26 20.9516 192.973 21.6014C192.684 22.2516 192.512 22.9574 192.457 23.7186H203.127ZM197.778 32.0208C196.719 32.0208 195.749 31.8209 194.867 31.4217C193.984 31.0226 193.218 30.4748 192.568 29.7781C191.918 29.0817 191.412 28.2787 191.05 27.3685C190.688 26.4582 190.506 25.4831 190.506 24.4426C190.506 23.4214 190.688 22.4609 191.05 21.5596C191.412 20.6587 191.914 19.8698 192.555 19.1918C193.195 18.5133 193.961 17.975 194.853 17.5754C195.744 17.1762 196.71 16.9769 197.751 16.9769C198.809 16.9769 199.779 17.1762 200.661 17.5754C201.543 17.975 202.3 18.5185 202.932 19.2054C203.563 19.8928 204.055 20.6822 204.409 21.5737C204.761 22.4651 204.938 23.4125 204.938 24.4149C204.938 24.5639 204.938 24.7125 204.938 24.8606C204.938 25.0101 204.928 25.1116 204.91 25.1671H192.484C192.541 25.9476 192.721 26.6675 193.028 27.3266C193.334 27.9858 193.729 28.557 194.212 29.0399C194.695 29.5227 195.247 29.8989 195.87 30.1683C196.492 30.4372 197.155 30.5721 197.861 30.5721C198.326 30.5721 198.791 30.5073 199.255 30.3771C199.719 30.2473 200.146 30.0705 200.536 29.8477C200.927 29.6248 201.279 29.3511 201.595 29.0258C201.91 28.7009 202.152 28.3431 202.319 27.9534L203.963 28.3991C203.74 28.9379 203.424 29.4254 203.015 29.8618C202.607 30.2985 202.133 30.6789 201.595 31.0038C201.056 31.3291 200.462 31.5797 199.811 31.7561C199.162 31.9324 198.484 32.0208 197.778 32.0208Z" fill="#3E88C6" />
    <path d="M214.717 31.0445C214.605 31.1 214.442 31.1748 214.229 31.2674C214.016 31.3605 213.769 31.4536 213.491 31.5462C213.212 31.6393 212.896 31.723 212.544 31.7968C212.191 31.8711 211.819 31.9082 211.429 31.9082C211.021 31.9082 210.63 31.8523 210.259 31.7408C209.887 31.6299 209.563 31.4583 209.284 31.226C209.005 30.9933 208.783 30.7013 208.615 30.3477C208.449 29.9956 208.365 29.5866 208.365 29.1221V18.7304H206.359V17.2264H208.365V12.323H210.259V17.2264H213.602V18.7304H210.259V28.5931C210.296 29.1319 210.486 29.5264 210.831 29.777C211.173 30.0276 211.568 30.1531 212.015 30.1531C212.553 30.1531 213.026 30.0652 213.435 29.8884C213.843 29.7121 214.104 29.5866 214.215 29.5123L214.717 31.0445Z" fill="#3E88C6" />
    <path d="M217.084 31.7416V17.2271H218.979V31.7416H217.084ZM217.084 14.1903V11.4041H218.979V14.1903H217.084Z" fill="#3E88C6" />
    <path d="M235.361 31.7416H233.466V23.6345C233.466 21.9076 233.211 20.6537 232.699 19.8737C232.189 19.0937 231.404 18.7034 230.345 18.7034C229.788 18.7034 229.231 18.806 228.674 19.01C228.117 19.2145 227.602 19.5027 227.128 19.8737C226.654 20.2456 226.231 20.6866 225.86 21.1972C225.489 21.7078 225.22 22.2602 225.052 22.8545V31.7416H223.158V17.2271H224.885V20.5145C225.479 19.4557 226.329 18.6019 227.434 17.9512C228.539 17.3014 229.742 16.9765 231.042 16.9765C231.841 16.9765 232.519 17.1251 233.076 17.4218C233.633 17.7194 234.079 18.1374 234.413 18.6757C234.748 19.2145 234.989 19.8737 235.137 20.6537C235.286 21.4337 235.361 22.2974 235.361 23.2448V31.7416Z" fill="#3E88C6" />
    <path d="M245.751 30.3441C246.309 30.3441 246.856 30.2425 247.395 30.038C247.933 29.8339 248.421 29.5599 248.858 29.2162C249.294 28.8725 249.661 28.4874 249.958 28.06C250.255 27.6326 250.45 27.1963 250.543 26.7506V22.2652C250.338 21.7452 250.06 21.2624 249.708 20.8166C249.354 20.3709 248.955 19.9906 248.51 19.6741C248.063 19.3587 247.586 19.1081 247.075 18.9219C246.564 18.7362 246.048 18.6435 245.528 18.6435C244.711 18.6435 243.982 18.8152 243.341 19.1588C242.701 19.503 242.157 19.953 241.711 20.5101C241.266 21.0673 240.927 21.6986 240.695 22.4044C240.462 23.1106 240.347 23.8252 240.347 24.5498C240.347 25.3298 240.486 26.0726 240.765 26.7783C241.043 27.4845 241.428 28.1019 241.921 28.6308C242.413 29.1602 242.984 29.5782 243.634 29.8847C244.284 30.1913 244.989 30.3441 245.751 30.3441ZM245.222 31.9323C244.219 31.9323 243.304 31.7235 242.478 31.3056C241.651 30.8876 240.936 30.3351 240.332 29.6482C239.729 28.9613 239.26 28.1714 238.926 27.28C238.591 26.3886 238.424 25.4689 238.424 24.5215C238.424 23.5187 238.587 22.5576 238.912 21.638C239.237 20.7188 239.696 19.9158 240.291 19.2284C240.885 18.5415 241.596 17.9938 242.422 17.5847C243.248 17.1761 244.163 16.9721 245.166 16.9721C246.41 16.9721 247.488 17.2833 248.398 17.9054C249.308 18.5274 250.087 19.3121 250.738 20.2595V17.2227H252.437V31.7931C252.437 32.796 252.247 33.6832 251.867 34.4538C251.486 35.2244 250.975 35.87 250.334 36.39C249.693 36.91 248.941 37.2997 248.078 37.5602C247.214 37.8197 246.299 37.95 245.334 37.95C243.662 37.95 242.315 37.6528 241.294 37.0585C240.272 36.4638 239.445 35.6654 238.815 34.663L239.985 33.7434C240.56 34.672 241.322 35.3542 242.269 35.791C243.216 36.2273 244.237 36.4454 245.334 36.4454C246.039 36.4454 246.708 36.3481 247.339 36.1535C247.97 35.9583 248.523 35.6697 248.997 35.2893C249.471 34.9085 249.846 34.426 250.126 33.8411C250.404 33.2558 250.543 32.5731 250.543 31.7931V28.9237C249.986 29.8523 249.224 30.5862 248.259 31.1246C247.293 31.6634 246.281 31.9323 245.222 31.9323Z" fill="#3E88C6" />
    <path d="M255.837 31.7416V29.7669H257.026V31.7416H255.837Z" fill="#3E88C6" />
    <path d="M264.463 30.7322C264.799 30.7322 265.158 30.6649 265.542 30.5305C265.925 30.3965 266.284 30.2117 266.62 29.9761C266.956 29.7415 267.241 29.4656 267.476 29.1501C267.711 28.8346 267.856 28.4947 267.91 28.1322V24.8876C267.775 24.5241 267.581 24.1851 267.325 23.8692C267.07 23.5537 266.778 23.2749 266.449 23.0327C266.119 22.7911 265.766 22.603 265.391 22.4685C265.014 22.3346 264.645 22.2668 264.282 22.2668C263.718 22.2668 263.206 22.3877 262.75 22.6298C262.293 22.8719 261.9 23.1912 261.571 23.5871C261.242 23.9834 260.99 24.4371 260.815 24.9472C260.64 25.4588 260.553 25.9826 260.553 26.52C260.553 27.0842 260.654 27.6216 260.855 28.1322C261.057 28.6432 261.333 29.0899 261.682 29.4721C262.031 29.8558 262.444 30.1614 262.921 30.3894C263.399 30.6179 263.913 30.7322 264.463 30.7322ZM264.161 31.9414C263.435 31.9414 262.763 31.7905 262.146 31.4882C261.527 31.1854 260.997 30.7863 260.553 30.2888C260.11 29.7919 259.764 29.2173 259.516 28.5656C259.267 27.914 259.142 27.2318 259.142 26.52C259.142 25.7809 259.264 25.0784 259.505 24.4136C259.747 23.7483 260.08 23.1677 260.503 22.6703C260.926 22.1733 261.43 21.7802 262.014 21.4911C262.599 21.2024 263.241 21.0576 263.939 21.0576C264.827 21.0576 265.612 21.2894 266.298 21.753C266.983 22.2166 267.52 22.7779 267.91 23.4362V17.0268H269.28V29.9663C269.28 30.3424 269.442 30.5305 269.765 30.5305V31.7397C269.563 31.7802 269.401 31.8004 269.28 31.8004C268.958 31.8004 268.676 31.6965 268.435 31.4882C268.192 31.2799 268.071 31.0279 268.071 30.7322V29.7044C267.655 30.3894 267.09 30.9339 266.379 31.3368C265.666 31.7397 264.927 31.9414 264.161 31.9414Z" fill="#3E88C6" />
    <path d="M280.789 25.9351C280.749 25.3709 280.618 24.8565 280.396 24.3934C280.174 23.9298 279.892 23.5302 279.549 23.1945C279.207 22.8583 278.81 22.5964 278.36 22.4084C277.91 22.2203 277.43 22.1258 276.919 22.1258C276.408 22.1258 275.925 22.2203 275.468 22.4084C275.011 22.5964 274.611 22.8583 274.269 23.1945C273.926 23.5302 273.65 23.9331 273.442 24.4033C273.234 24.8739 273.11 25.3845 273.07 25.9351H280.789ZM276.919 31.9414C276.153 31.9414 275.451 31.7971 274.813 31.5084C274.175 31.2192 273.621 30.8229 273.151 30.3189C272.679 29.8153 272.314 29.2342 272.052 28.5755C271.789 27.9173 271.659 27.212 271.659 26.4593C271.659 25.7207 271.789 25.0253 272.052 24.3732C272.314 23.7215 272.676 23.1508 273.14 22.6599C273.604 22.1695 274.158 21.7802 274.803 21.4911C275.448 21.2024 276.146 21.0576 276.899 21.0576C277.665 21.0576 278.367 21.2024 279.006 21.4911C279.643 21.7802 280.191 22.1733 280.648 22.6702C281.105 23.1677 281.461 23.7385 281.716 24.383C281.972 25.0281 282.099 25.7136 282.099 26.4391C282.099 26.5468 282.099 26.6544 282.099 26.7616C282.099 26.8693 282.092 26.9431 282.079 26.9836H273.089C273.13 27.5478 273.261 28.0687 273.483 28.5454C273.704 29.0227 273.989 29.4359 274.339 29.7848C274.688 30.1346 275.089 30.4063 275.539 30.601C275.989 30.7961 276.468 30.8934 276.979 30.8934C277.315 30.8934 277.651 30.8464 277.988 30.7524C278.323 30.6583 278.632 30.5305 278.915 30.3697C279.197 30.2084 279.452 30.01 279.68 29.7749C279.909 29.5399 280.084 29.2812 280.204 28.9987L281.393 29.3212C281.232 29.7114 281.004 30.0641 280.708 30.3795C280.412 30.695 280.07 30.9706 279.68 31.2056C279.29 31.4412 278.861 31.6222 278.391 31.7501C277.92 31.8775 277.43 31.9414 276.919 31.9414Z" fill="#3E88C6" />
    <path d="M37.3497 7.01483L40.4879 8.87483L32.0007 14.8868V3.19992C32.0007 1.44009 30.5602 -9.53674e-06 28.8004 -9.53674e-06H19.2004C17.4404 -9.53674e-06 16.0003 1.44009 16.0003 3.19992V16.0002H3.20023C1.44007 16.0002 0 17.4398 0 19.1996V28.8004C0 30.5603 1.44007 31.9999 3.20023 31.9999H4.83537L22.3395 18.8696L25.1719 23.6625L28.6992 21.1636L28.7188 21.1325L42.5862 11.3103L43.779 14.5737L47.6588 4.78205L37.3497 7.01483Z" fill="#3E88C6" />
    <path d="M77.3699 21.8235C77.3699 20.8766 77.2396 20.0034 76.9801 19.2051C76.7196 18.4063 76.3393 17.7194 75.8376 17.1434C75.3359 16.568 74.7186 16.1222 73.9847 15.8063C73.2507 15.4903 72.42 15.3328 71.4914 15.3328H68.1485V28.371H71.4914C72.4388 28.371 73.2785 28.2036 74.0124 27.8693C74.7463 27.535 75.3594 27.0752 75.8517 26.4903C76.3435 25.9054 76.7196 25.2138 76.9801 24.4145C77.2396 23.6167 77.3699 22.753 77.3699 21.8235ZM64.304 31.7416V11.9617H71.4914C73.1073 11.9617 74.5235 12.2217 75.7398 12.7417C76.9566 13.2617 77.9731 13.9675 78.7907 14.8589C79.6078 15.7508 80.2209 16.795 80.6295 17.993C81.0376 19.1914 81.2421 20.468 81.2421 21.8235C81.2421 23.328 81.0146 24.6891 80.5599 25.9054C80.1043 27.1217 79.4499 28.1618 78.5956 29.0255C77.7413 29.8891 76.7154 30.5577 75.5174 31.0312C74.319 31.5051 72.9771 31.7416 71.4914 31.7416H64.304Z" fill="#113A5A" />
    <path d="M86.8137 24.4708C86.8137 25.1211 86.911 25.7106 87.1061 26.2401C87.3012 26.7695 87.5697 27.2288 87.9139 27.6191C88.2575 28.0088 88.6614 28.3107 89.1259 28.5246C89.59 28.738 90.0912 28.8448 90.6305 28.8448C91.1688 28.8448 91.6705 28.738 92.1345 28.5246C92.5986 28.3107 93.0029 28.0088 93.3466 27.6191C93.6898 27.2288 93.9592 26.7648 94.1544 26.226C94.3495 25.6876 94.4468 25.0933 94.4468 24.4426C94.4468 23.8121 94.3495 23.2268 94.1544 22.688C93.9592 22.1496 93.6898 21.6851 93.3466 21.2949C93.0029 20.9046 92.5986 20.6032 92.1345 20.3893C91.6705 20.1763 91.1688 20.0691 90.6305 20.0691C90.0912 20.0691 89.59 20.1806 89.1259 20.4034C88.6614 20.6263 88.2575 20.9328 87.9139 21.3226C87.5697 21.7128 87.3012 22.1774 87.1061 22.7157C86.911 23.2545 86.8137 23.8399 86.8137 24.4708ZM90.6305 32.0208C89.4414 32.0208 88.3737 31.8162 87.4263 31.4077C86.4794 30.9996 85.6759 30.4466 85.0167 29.7503C84.357 29.0535 83.8507 28.2505 83.4981 27.3403C83.145 26.4305 82.9691 25.4737 82.9691 24.4708C82.9691 23.4492 83.145 22.4839 83.4981 21.5737C83.8507 20.6634 84.357 19.8599 85.0167 19.1636C85.6759 18.4673 86.4794 17.9149 87.4263 17.5058C88.3737 17.0977 89.4414 16.8932 90.6305 16.8932C91.8186 16.8932 92.8821 17.0977 93.8201 17.5058C94.758 17.9149 95.5569 18.4673 96.216 19.1636C96.8752 19.8599 97.3816 20.6634 97.7347 21.5737C98.0868 22.4839 98.2641 23.4492 98.2641 24.4708C98.2641 25.4737 98.0868 26.4305 97.7347 27.3403C97.3816 28.2505 96.8799 29.0535 96.2301 29.7503C95.5799 30.4466 94.7811 30.9996 93.8342 31.4077C92.8868 31.8162 91.8186 32.0208 90.6305 32.0208Z" fill="#113A5A" />
    <path d="M99.8516 24.4426C99.8516 23.4214 100.028 22.4557 100.381 21.5455C100.734 20.6357 101.245 19.8374 101.913 19.1495C102.582 18.4631 103.39 17.9149 104.337 17.5058C105.284 17.0977 106.352 16.8932 107.541 16.8932C109.138 16.8932 110.498 17.2369 111.622 17.9238C112.746 18.6112 113.586 19.512 114.144 20.6263L110.494 21.7406C110.178 21.2022 109.76 20.7889 109.24 20.5007C108.72 20.213 108.144 20.0691 107.513 20.0691C106.974 20.0691 106.473 20.1763 106.009 20.3893C105.544 20.6032 105.14 20.9004 104.797 21.2807C104.453 21.662 104.184 22.1214 103.989 22.6602C103.794 23.199 103.696 23.7928 103.696 24.4426C103.696 25.0933 103.798 25.6876 104.003 26.226C104.207 26.7648 104.481 27.2288 104.825 27.6191C105.168 28.0088 105.572 28.3107 106.037 28.5246C106.501 28.738 106.993 28.8448 107.513 28.8448C108.181 28.8448 108.799 28.6779 109.365 28.3431C109.932 28.0088 110.327 27.6007 110.55 27.1174L114.199 28.2317C113.698 29.3465 112.871 30.2567 111.72 30.9619C110.568 31.6681 109.185 32.0208 107.569 32.0208C106.38 32.0208 105.312 31.8162 104.365 31.4077C103.418 30.9996 102.61 30.4466 101.941 29.7503C101.272 29.0535 100.757 28.2458 100.395 27.3266C100.033 26.407 99.8516 25.4459 99.8516 24.4426Z" fill="#113A5A" />
    <path d="M116.121 25.7832V22.4121H124.563V25.7832H116.121Z" fill="#113A5A" />
    <path d="M44.8001 16H41.5249L24.185 28.2827L21.402 23.573L4.81726 36.0136L14.975 31.9998H16.0002V44.8C16.0002 46.5599 17.4403 48 19.2003 48H28.8003C30.5601 48 32.0005 46.5599 32.0005 44.8V31.9998H44.8001C46.5604 31.9998 48.0005 30.5601 48.0005 28.8003V19.1995C48.0005 17.4397 46.5604 16 44.8001 16Z" fill="#113A5A" />
</svg>